<svg width="100" height="100" viewBox="0 0 100 100" fill="none" xmlns="http://www.w3.org/2000/svg">
<path d="M33.5444 91.9366C12.981 84.0746 -0.360453 60.6463 7.08647 36.6323C8.88808 30.7914 11.8626 25.3806 15.8275 20.732C19.7924 16.0834 24.664 12.295 30.1436 9.5991C35.6232 6.90326 41.5951 5.35687 47.6929 5.05481C53.7907 4.75276 59.8859 5.70141 65.6045 7.84255C89.9026 16.8534 101.512 44.1114 91.275 67.7424C81.0383 91.3734 55.5252 99.1678 36.7167 92.9503L37.7066 91.2608C39.0102 89.0374 40.1749 86.7352 41.1938 84.3675C41.9138 82.6779 42.3638 80.8983 42.8137 79.1412C43.5337 76.3177 44.2611 73.4943 44.9961 70.6709L45.041 70.5132L45.3785 71.0314C46.2798 72.2594 47.4596 73.2554 48.8208 73.9374C51.2368 75.2204 53.9695 75.7833 56.6951 75.5593C59.9636 75.3663 63.1399 74.4014 65.9644 72.7434C68.8712 71.012 71.3663 68.6674 73.2764 65.8726C75.5334 62.5931 77.1095 58.8931 77.911 54.992C78.4853 52.3895 78.7421 49.7269 78.676 47.0624C78.4735 39.8537 75.7737 33.7714 70.4641 28.883C66.7969 25.5039 62.4772 23.4089 57.6401 22.3501C54.7726 21.7423 51.8366 21.5225 48.9107 21.6968C46.2704 21.8168 43.6518 22.2324 41.1039 22.9358C36.2667 24.2874 31.9921 26.6753 28.5048 30.3247C25.6634 33.2992 23.5797 36.9155 22.4303 40.8674C21.5893 43.6093 21.2017 46.4705 21.2829 49.3377C21.4404 54.0909 22.8578 58.4612 25.6925 62.3359C26.8935 64.0428 28.5024 65.4213 30.3722 66.3457C31.2721 66.7737 31.6996 66.571 31.9246 65.6023C32.307 64.0254 32.667 62.4485 33.072 60.8716C33.1459 60.6221 33.1578 60.3583 33.1069 60.1032C33.0559 59.848 32.9435 59.6092 32.7795 59.4073C31.2271 57.4925 30.3497 55.2623 29.8322 52.897C28.7973 48.1212 29.5847 43.5932 31.9921 39.3581C34.6693 34.6499 38.719 31.6989 43.9386 30.3022C46.2572 29.6982 48.6574 29.47 51.0481 29.6264C54.6028 29.8291 57.9326 30.7978 60.9023 32.8252C64.5245 35.3032 66.7969 38.7274 67.8768 42.9625C68.377 45.0482 68.5666 47.1965 68.4392 49.3377C68.3582 51.6601 68.0109 53.9654 67.4043 56.2085C66.6169 59.0469 65.402 61.66 63.5121 63.9353C61.6223 66.2105 59.8674 67.382 57.3926 68.0803C55.6602 68.5759 53.8829 68.7336 52.128 68.1479C49.7207 67.3594 48.1458 65.76 47.6058 63.237C47.406 62.1629 47.4756 61.056 47.8083 60.0156C48.5508 57.4475 49.2932 54.9019 50.0357 52.3338C50.5474 50.687 50.9533 49.009 51.2506 47.3102C51.4981 45.7784 51.5205 44.269 51.0256 42.7822C50.2156 40.3268 48.2358 38.9301 45.6485 38.9977C43.5562 39.0653 41.8913 39.9889 40.5189 41.4982C39.2031 42.9904 38.3166 44.8123 37.9541 46.7696C37.2835 50.0348 37.6128 53.4266 38.899 56.5013C38.9364 56.6021 38.9443 56.7116 38.9215 56.8167L34.8718 74.0725C34.4219 75.9873 33.9719 77.8796 33.5669 79.7945C33.3131 81.1691 33.1851 82.564 33.1845 83.962C33.1347 86.5733 33.2625 89.185 33.5669 91.7789C33.5669 91.8465 33.5444 91.869 33.5444 91.9366Z" fill="#BD081C"/>
</svg>
